# This file uses centimeters as units for non-parametric coordinates.

mtllib ceilingLight.mtl
g default
v -3.224388 0.813328 1.649592
v 3.224388 0.813328 1.649592
v -3.224388 0.813328 -1.649592
v 3.224388 0.813328 -1.649592
v -2.927808 0.220109 1.353012
v -3.224388 0.516689 1.649592
v 3.224388 0.516689 1.649592
v 2.927808 0.220109 1.353012
v -3.224388 0.516689 -1.649592
v -2.927808 0.220109 -1.353012
v 2.927808 0.220109 -1.353012
v 3.224388 0.516689 -1.649592
v 2.590270 0.220109 -1.082069
v -2.590270 0.220109 -1.082069
v 2.590270 0.220109 1.082069
v -2.590270 0.220109 1.082069
v 2.590270 0.617699 -1.082069
v -2.590270 0.617699 -1.082069
v 2.590270 0.617699 1.082069
v -2.590270 0.617699 1.082069
vt 0.304447 0.028483
vt 0.451779 0.001992
vt 0.451779 0.296685
vt 0.304447 0.270194
vt 0.599140 0.001992
vt 0.599140 0.296685
vt 0.820224 0.595248
vt 0.672892 0.568756
vt 0.672892 0.327046
vt 0.820224 0.300555
vt 0.967585 0.300555
vt 0.967585 0.595248
vt 0.610553 0.599118
vt 0.803860 0.599118
vt 0.803860 0.796628
vt 0.610553 0.796628
vt 0.774278 0.800498
vt 0.967585 0.800498
vt 0.967585 0.998008
vt 0.774278 0.998008
vt 0.001931 0.296685
vt 0.001931 0.001992
vt 0.296624 0.001992
vt 0.296624 0.296685
vt 0.001931 0.808750
vt 0.001931 0.572012
vt 0.195239 0.572012
vt 0.195239 0.808750
vt 0.124593 0.568142
vt 0.124593 0.300555
vt 0.148794 0.315980
vt 0.148794 0.552717
vt 0.366303 0.300555
vt 0.342102 0.315980
vt 0.366303 0.568142
vt 0.342102 0.552717
vt 0.754105 0.296685
vt 0.606773 0.283132
vt 0.606773 0.015545
vt 0.754105 0.001992
vt 0.901466 0.001992
vt 0.901466 0.296685
vt 0.666944 0.581694
vt 0.519612 0.595248
vt 0.519612 0.300555
vt 0.666944 0.314108
vt 0.372251 0.595248
vt 0.372251 0.300555
vt 0.202412 0.835855
vt 0.202412 0.599117
vt 0.399922 0.599117
vt 0.399922 0.835855
vt 0.603993 0.599117
vt 0.603993 0.835854
vt 0.406482 0.835854
vt 0.406482 0.599117
vn 0.000000 1.000000 0.000000
vn 0.000000 1.000000 0.000000
vn 0.000000 1.000000 0.000000
vn 0.000000 1.000000 0.000000
vn -0.707107 -0.707107 0.000000
vn -0.707107 -0.707107 0.000000
vn -0.707107 -0.707107 0.000000
vn -0.707107 -0.707107 0.000000
vn 0.000000 -0.707107 0.707107
vn 0.000000 -0.707107 0.707107
vn 0.000000 -0.707107 0.707107
vn 0.000000 -0.707107 0.707107
vn 0.707107 -0.707107 0.000000
vn 0.707107 -0.707107 0.000000
vn 0.707107 -0.707107 0.000000
vn 0.707107 -0.707107 0.000000
vn 0.000000 -0.707107 -0.707107
vn 0.000000 -0.707107 -0.707107
vn 0.000000 -0.707107 -0.707107
vn 0.000000 -0.707107 -0.707107
vn 0.000000 0.000000 1.000000
vn 0.000000 0.000000 1.000000
vn 0.000000 0.000000 1.000000
vn 0.000000 0.000000 1.000000
vn 0.000000 0.000000 -1.000000
vn 0.000000 0.000000 -1.000000
vn 0.000000 0.000000 -1.000000
vn 0.000000 0.000000 -1.000000
vn 0.000000 -1.000000 0.000000
vn 0.000000 -1.000000 0.000000
vn 0.000000 -1.000000 0.000000
vn 0.000000 -1.000000 0.000000
vn 1.000000 0.000000 0.000000
vn 1.000000 0.000000 0.000000
vn 1.000000 0.000000 0.000000
vn 1.000000 0.000000 0.000000
vn -1.000000 0.000000 0.000000
vn -1.000000 0.000000 0.000000
vn -1.000000 0.000000 0.000000
vn -1.000000 0.000000 0.000000
vn 0.000000 -1.000000 -0.000000
vn 0.000000 -1.000000 -0.000000
vn 0.000000 -1.000000 -0.000000
vn 0.000000 -1.000000 -0.000000
vn 0.000000 -1.000000 0.000000
vn 0.000000 -1.000000 0.000000
vn 0.000000 -1.000000 0.000000
vn 0.000000 -1.000000 0.000000
vn 0.000000 -1.000000 0.000000
vn 0.000000 -1.000000 0.000000
vn 0.000000 -1.000000 0.000000
vn 0.000000 -1.000000 0.000000
vn 0.000000 -1.000000 0.000000
vn 0.000000 -1.000000 0.000000
vn 0.000000 -1.000000 0.000000
vn 0.000000 -1.000000 0.000000
vn 0.000000 0.000000 1.000000
vn 0.000000 0.000000 1.000000
vn 0.000000 0.000000 1.000000
vn 0.000000 0.000000 1.000000
vn -1.000000 0.000000 0.000000
vn -1.000000 0.000000 0.000000
vn -1.000000 0.000000 0.000000
vn -1.000000 0.000000 0.000000
vn 0.000000 0.000000 -1.000000
vn 0.000000 0.000000 -1.000000
vn 0.000000 0.000000 -1.000000
vn 0.000000 0.000000 -1.000000
vn 1.000000 0.000000 0.000000
vn 1.000000 0.000000 0.000000
vn 1.000000 0.000000 0.000000
vn 1.000000 0.000000 0.000000
s off
g pCube1
usemtl initialShadingGroup
f 1/21/1 2/22/2 4/23/3 3/24/4
f 5/1/5 6/2/6 9/3/7 10/4/8
f 6/37/9 5/38/10 8/39/11 7/40/12
f 7/7/13 8/8/14 11/9/15 12/10/16
f 10/43/17 9/44/18 12/45/19 11/46/20
f 6/37/21 7/40/22 2/41/23 1/42/24
f 3/47/25 4/48/26 12/45/27 9/44/28
f 18/25/29 17/26/30 19/27/31 20/28/32
f 7/7/33 12/10/34 4/11/35 2/12/36
f 9/3/37 6/2/38 1/5/39 3/6/40
f 10/29/41 11/30/42 13/31/43 14/32/44
f 11/30/45 8/33/46 15/34/47 13/31/48
f 8/33/49 5/35/50 16/36/51 15/34/52
f 5/35/53 10/29/54 14/32/55 16/36/56
f 14/49/57 13/50/58 17/51/59 18/52/60
f 13/13/61 15/14/62 19/15/63 17/16/64
f 15/53/65 16/54/66 20/55/67 19/56/68
f 16/17/69 14/18/70 18/19/71 20/20/72
g default
v -2.581860 0.166516 1.051931
v 2.581860 0.166516 1.051931
v -2.581860 0.423038 1.051931
v 2.581860 0.423038 1.051931
v -2.581860 0.423038 -1.051931
v 2.581860 0.423038 -1.051931
v -2.581860 0.166516 -1.051931
v 2.581860 0.166516 -1.051931
vt 0.453871 0.082736
vt 0.468262 0.082736
vt 0.468262 0.097127
vt 0.453871 0.097127
vt 0.468583 0.082736
vt 0.482974 0.082736
vt 0.482974 0.097127
vt 0.468583 0.097127
vt 0.468583 0.068014
vt 0.468583 0.053623
vt 0.482974 0.053623
vt 0.482974 0.068014
vt 0.041080 0.344556
vt 0.940966 0.344556
vt 0.940966 0.649587
vt 0.041080 0.649587
vt 0.453871 0.053623
vt 0.468262 0.053623
vt 0.468262 0.068014
vt 0.453871 0.068014
vt 0.480767 0.082570
vt 0.480767 0.068179
vt 0.495158 0.068179
vt 0.495158 0.082570
vn 0.000000 0.000000 1.000000
vn 0.000000 0.000000 1.000000
vn 0.000000 0.000000 1.000000
vn 0.000000 0.000000 1.000000
vn 0.000000 1.000000 0.000000
vn 0.000000 1.000000 0.000000
vn 0.000000 1.000000 0.000000
vn 0.000000 1.000000 0.000000
vn 0.000000 0.000000 -1.000000
vn 0.000000 0.000000 -1.000000
vn 0.000000 0.000000 -1.000000
vn 0.000000 0.000000 -1.000000
vn 0.000000 -1.000000 0.000000
vn 0.000000 -1.000000 0.000000
vn 0.000000 -1.000000 0.000000
vn 0.000000 -1.000000 0.000000
vn 1.000000 0.000000 0.000000
vn 1.000000 0.000000 0.000000
vn 1.000000 0.000000 0.000000
vn 1.000000 0.000000 0.000000
vn -1.000000 0.000000 0.000000
vn -1.000000 0.000000 0.000000
vn -1.000000 0.000000 0.000000
vn -1.000000 0.000000 0.000000
s off
g pCube2
usemtl initialShadingGroup
f 21/73/73 22/74/74 24/75/75 23/76/76
f 23/65/77 24/66/78 26/67/79 25/68/80
f 25/77/81 26/78/82 28/79/83 27/80/84
f 27/69/85 28/70/86 22/71/87 21/72/88
f 22/57/89 28/58/90 26/59/91 24/60/92
f 27/61/93 21/62/94 23/63/95 25/64/96
